<svg version="1.1" xmlns="http://www.w3.org/2000/svg" viewBox="0 0 955.2008438110352 604.2262926697731" width="955.2008438110352" height="604.2262926697731" filter="invert(93%) hue-rotate(180deg)">
  <!-- svg-source:excalidraw -->
  
  <defs>
    <style class="style-fonts">
      @font-face {
        font-family: "Virgil";
        src: url("https://excalidraw.com/Virgil.woff2");
      }
      @font-face {
        font-family: "Cascadia";
        src: url("https://excalidraw.com/Cascadia.woff2");
      }
      @font-face {
        font-family: "Assistant";
        src: url("https://excalidraw.com/Assistant-Regular.woff2");
      }
    </style>
    
  </defs>
  <rect x="0" y="0" width="955.2008438110352" height="604.2262926697731" fill="#ffffff"></rect><g stroke-linecap="round" transform="translate(21.782484531402588 76.04164284467697) rotate(0 149 62.5)"><path d="M31.25 0 C100.18 -0.91, 167.3 0.93, 266.75 0 M31.25 0 C103.99 1.73, 177.61 2.1, 266.75 0 M266.75 0 C287.42 0.61, 299.32 8.97, 298 31.25 M266.75 0 C285.3 1.61, 298.56 9.31, 298 31.25 M298 31.25 C299.19 45.11, 300.38 56.59, 298 93.75 M298 31.25 C297.06 50.3, 296.64 69.49, 298 93.75 M298 93.75 C296.45 114.03, 289.03 126.89, 266.75 125 M298 93.75 C296.75 116.58, 287.35 124.37, 266.75 125 M266.75 125 C188.51 125.31, 114.13 127.63, 31.25 125 M266.75 125 C181.12 124.62, 93.38 124.63, 31.25 125 M31.25 125 C11.34 125.13, 0.32 113.23, 0 93.75 M31.25 125 C9.47 125.39, -1.92 114.21, 0 93.75 M0 93.75 C0.08 73.69, 0.96 51.89, 0 31.25 M0 93.75 C-1.05 79.8, -0.79 66.93, 0 31.25 M0 31.25 C-1.49 9.29, 10.27 -1.96, 31.25 0 M0 31.25 C-1.7 9.55, 9.07 0.42, 31.25 0" stroke="#1e1e1e" stroke-width="2" fill="none"></path></g><g transform="translate(41.78248453140259 120.04164284467697) rotate(0 132.30984497070312 12.5)"><text x="0" y="17.52" font-family="Virgil, Segoe UI Emoji" font-size="20px" fill="#1e1e1e" text-anchor="start" style="white-space: pre;" direction="ltr" dominant-baseline="alphabetic">Typescript File(.ts or .tsx)</text></g><g stroke-linecap="round"><g transform="translate(159.7824845314026 226.04164284467697) rotate(0 -0.5 21.5)"><path d="M-0.15 0.32 C-0.21 7.37, -0.43 35.55, -0.61 42.71 M0.77 0 C0.7 7.1, -0.43 36.2, -0.84 43.26" stroke="#1e1e1e" stroke-width="2" fill="none"></path></g><g transform="translate(159.7824845314026 226.04164284467697) rotate(0 -0.5 21.5)"><path d="M-7.25 22.74 C-5.01 28.59, -4.5 32.63, -0.84 43.26 M-7.25 22.74 C-5.41 30.41, -2.45 37.59, -0.84 43.26" stroke="#1e1e1e" stroke-width="2" fill="none"></path></g><g transform="translate(159.7824845314026 226.04164284467697) rotate(0 -0.5 21.5)"><path d="M7.44 23.42 C6.01 29.08, 2.84 32.95, -0.84 43.26 M7.44 23.42 C4.12 30.78, 1.9 37.73, -0.84 43.26" stroke="#1e1e1e" stroke-width="2" fill="none"></path></g></g><mask></mask><g stroke-linecap="round" transform="translate(10.036552429199219 287.04164284467697) rotate(0 156.5 56.5)"><path d="M28.25 0 C94.79 0.52, 160.99 1.65, 284.75 0 M28.25 0 C99.52 -1.74, 170.26 -1.67, 284.75 0 M284.75 0 C302.94 1.14, 312.04 8.2, 313 28.25 M284.75 0 C305.29 0.52, 310.73 8.58, 313 28.25 M313 28.25 C313.87 40.27, 314.87 51.42, 313 84.75 M313 28.25 C312.4 48.2, 312.43 65.78, 313 84.75 M313 84.75 C312.1 103.98, 304.75 111.52, 284.75 113 M313 84.75 C312.53 105.31, 305.05 111.65, 284.75 113 M284.75 113 C232.71 115.11, 178.13 114.86, 28.25 113 M284.75 113 C226.03 113.83, 168.72 113.9, 28.25 113 M28.25 113 C10.2 114.92, 1.15 104.86, 0 84.75 M28.25 113 C9.72 114.78, 0.11 105.86, 0 84.75 M0 84.75 C0.73 67.13, -0.31 47.58, 0 28.25 M0 84.75 C0.49 70.06, 0.15 52.91, 0 28.25 M0 28.25 C1.41 8.98, 7.75 1.25, 28.25 0 M0 28.25 C-1.91 10.45, 9.49 -1.14, 28.25 0" stroke="#1e1e1e" stroke-width="2" fill="none"></path></g><g transform="translate(76.03655242919922 330.04164284467697) rotate(0 93.47988891601562 12.5)"><text x="0" y="17.52" font-family="Virgil, Segoe UI Emoji" font-size="20px" fill="#1e1e1e" text-anchor="start" style="white-space: pre;" direction="ltr" dominant-baseline="alphabetic">Typescript Compiler</text></g><g stroke-linecap="round" transform="translate(10 479.2262926697731) rotate(0 156 57.5)"><path d="M28.75 0 C115.84 -1.65, 200.75 -1.62, 283.25 0 M28.75 0 C81.57 -0.64, 132.91 -0.27, 283.25 0 M283.25 0 C303.37 -0.94, 311.68 7.8, 312 28.75 M283.25 0 C303.04 1.42, 312.72 11.81, 312 28.75 M312 28.75 C311.92 43.6, 312.4 56.77, 312 86.25 M312 28.75 C311.07 44.13, 311.75 61.01, 312 86.25 M312 86.25 C312.04 105.87, 303.66 116.63, 283.25 115 M312 86.25 C313.43 103.92, 301.38 115.08, 283.25 115 M283.25 115 C200.51 115.35, 120.11 114.28, 28.75 115 M283.25 115 C197.75 113.69, 114.42 113.54, 28.75 115 M28.75 115 C11.41 116.53, 1.71 106.98, 0 86.25 M28.75 115 C7.43 117.23, 1.8 104.55, 0 86.25 M0 86.25 C-0.6 70.08, 0.62 54.1, 0 28.75 M0 86.25 C1.23 65.47, 1.01 43.6, 0 28.75 M0 28.75 C1.15 11.44, 10.45 -1.57, 28.75 0 M0 28.75 C2 8.97, 10.88 1.46, 28.75 0" stroke="#1e1e1e" stroke-width="2" fill="none"></path></g><g transform="translate(86 520.2262926697731) rotate(0 105.19988250732422 12.5)"><text x="0" y="17.52" font-family="Virgil, Segoe UI Emoji" font-size="20px" fill="#1e1e1e" text-anchor="start" style="white-space: pre;" direction="ltr" dominant-baseline="alphabetic">JavaScript Code (.js)</text></g><g stroke-linecap="round"><g transform="translate(161.82534758129918 412.59355250932276) rotate(0 -0.03350942505721832 20)"><path d="M-0.13 -0.33 C0.03 6.35, 0.43 33.27, 0.38 39.99 M0.81 0.69 C0.98 7.47, 0.47 34.03, 0.19 40.68" stroke="#1e1e1e" stroke-width="2" fill="none"></path></g><g transform="translate(161.82534758129918 412.59355250932276) rotate(0 -0.03350942505721832 20)"><path d="M-6.12 21.7 C-5.47 26.37, -3.62 28.83, 0.19 40.68 M-6.12 21.7 C-4.49 26.9, -2.23 33, 0.19 40.68" stroke="#1e1e1e" stroke-width="2" fill="none"></path></g><g transform="translate(161.82534758129918 412.59355250932276) rotate(0 -0.03350942505721832 20)"><path d="M7.55 22.09 C5.44 26.66, 4.53 29.05, 0.19 40.68 M7.55 22.09 C5.15 27.18, 3.39 33.17, 0.19 40.68" stroke="#1e1e1e" stroke-width="2" fill="none"></path></g></g><mask></mask><g stroke-linecap="round"><g transform="translate(348.20130157470703 138.2606673836708) rotate(0 60.5 0)"><path d="M-0.83 -0.23 C19.01 -0.17, 99.5 1, 119.82 0.85 M0.93 -1.4 C21.05 -1.71, 102.01 -0.99, 121.91 -0.83" stroke="#1e1e1e" stroke-width="2" fill="none"></path></g><g transform="translate(348.20130157470703 138.2606673836708) rotate(0 60.5 0)"><path d="M98.34 7.53 C106.48 2.69, 116.83 1.7, 121.91 -0.83 M98.34 7.53 C102.5 6.47, 107.44 5, 121.91 -0.83" stroke="#1e1e1e" stroke-width="2" fill="none"></path></g><g transform="translate(348.20130157470703 138.2606673836708) rotate(0 60.5 0)"><path d="M98.48 -9.57 C106.64 -8.21, 116.94 -2.99, 121.91 -0.83 M98.48 -9.57 C102.67 -7.1, 107.57 -5.04, 121.91 -0.83" stroke="#1e1e1e" stroke-width="2" fill="none"></path></g></g><mask></mask><g transform="translate(504.20130157470703 121.2606673836708) rotate(0 220.49977111816406 12.5)"><text x="0" y="17.52" font-family="Virgil, Segoe UI Emoji" font-size="20px" fill="#1e1e1e" text-anchor="start" style="white-space: pre;" direction="ltr" dominant-baseline="alphabetic">Typescript Code Anotations, Types, Generics</text></g><g stroke-linecap="round"><g transform="translate(344.20130157470703 336.2606673836708) rotate(0 59.5 -0.5)"><path d="M1.18 -0.02 C20.86 -0.45, 99.48 -1.48, 119.03 -1.59 M0.34 -1.08 C19.78 -1.43, 98.58 -0.68, 118.09 -0.37" stroke="#1e1e1e" stroke-width="2" fill="none"></path></g><g transform="translate(344.20130157470703 336.2606673836708) rotate(0 59.5 -0.5)"><path d="M94.5 7.91 C103.35 4.58, 111.36 0.51, 118.09 -0.37 M94.5 7.91 C102.93 5.4, 109.52 2.63, 118.09 -0.37" stroke="#1e1e1e" stroke-width="2" fill="none"></path></g><g transform="translate(344.20130157470703 336.2606673836708) rotate(0 59.5 -0.5)"><path d="M94.7 -9.19 C103.61 -6.03, 111.54 -3.6, 118.09 -0.37 M94.7 -9.19 C102.9 -6.15, 109.42 -3.36, 118.09 -0.37" stroke="#1e1e1e" stroke-width="2" fill="none"></path></g></g><mask></mask><g transform="translate(538.201301574707 330.2606673836708) rotate(0 108.50987243652344 12.5)"><text x="0" y="17.52" font-family="Virgil, Segoe UI Emoji" font-size="20px" fill="#1e1e1e" text-anchor="start" style="white-space: pre;" direction="ltr" dominant-baseline="alphabetic">Compilation/Transpiling</text></g><g stroke-linecap="round"><g transform="translate(348.5154011098574 539.6604004133493) rotate(0 59.50000000000006 -0.5)"><path d="M-0.96 -0.2 C18.59 -0.5, 98.25 -2.04, 118.19 -2.05 M0.74 -1.34 C20.58 -1.51, 100.98 -0.92, 120.48 -1.06" stroke="#1e1e1e" stroke-width="2" fill="none"></path></g><g transform="translate(348.5154011098574 539.6604004133493) rotate(0 59.50000000000006 -0.5)"><path d="M96.98 7.46 C105.53 3.09, 112.96 0.7, 120.48 -1.06 M96.98 7.46 C105.14 3.65, 114.44 0.6, 120.48 -1.06" stroke="#1e1e1e" stroke-width="2" fill="none"></path></g><g transform="translate(348.5154011098574 539.6604004133493) rotate(0 59.50000000000006 -0.5)"><path d="M97 -9.64 C105.5 -7.57, 112.93 -3.51, 120.48 -1.06 M97 -9.64 C105.29 -7.25, 114.58 -4.09, 120.48 -1.06" stroke="#1e1e1e" stroke-width="2" fill="none"></path></g></g><mask></mask><g transform="translate(525.9916641712189 521.133967757225) rotate(0 150.85983276367188 12.5)"><text x="0" y="17.52" font-family="Virgil, Segoe UI Emoji" font-size="20px" fill="#1e1e1e" text-anchor="start" style="white-space: pre;" direction="ltr" dominant-baseline="alphabetic">Vanilla JS Code Runs Everyone</text></g><g transform="translate(237.5874481201172 10) rotate(0 39.30995178222656 12.5)"><text x="0" y="17.52" font-family="Virgil, Segoe UI Emoji" font-size="20px" fill="#1e1e1e" text-anchor="start" style="white-space: pre;" direction="ltr" dominant-baseline="alphabetic">Stages </text></g></svg>